<svg width="24" height="24" viewBox="0 0 24 24" fill="none" xmlns="http://www.w3.org/2000/svg">
<path d="M3 3V18C3 19.6465 4.35352 21 6 21H18C19.6465 21 21 19.6465 21 18V7.5H16.5V3H3ZM4.5 4.5H15V18C15 18.5508 15.1641 19.0547 15.4219 19.5H6C5.16211 19.5 4.5 18.8379 4.5 18V4.5ZM6 7.5V9H13.5V7.5H6ZM16.5 9H19.5V18C19.5 18.8379 18.8379 19.5 18 19.5C17.1621 19.5 16.5 18.8379 16.5 18V9ZM6 10.5V12H9V10.5H6ZM10.5 10.5V12H13.5V10.5H10.5ZM6 13.5V15H9V13.5H6ZM10.5 13.5V15H13.5V13.5H10.5ZM6 16.5V18H9V16.5H6ZM10.5 16.5V18H13.5V16.5H10.5Z" fill="#3C3C3C"/>
</svg>
