<svg width="24" height="24" viewBox="0 0 24 24" fill="none" xmlns="http://www.w3.org/2000/svg">
<path d="M5.25 1.5C4.83398 1.5 4.5 1.83398 4.5 2.25V3H18V2.25C18 1.83398 17.666 1.5 17.25 1.5H5.25ZM3.75 4.5C3.33398 4.5 3 4.83398 3 5.25V6H19.5V5.25C19.5 4.83398 19.166 4.5 18.75 4.5H3.75ZM2.25 7.5C1.83398 7.5 1.5 7.83398 1.5 8.25V21.75C1.5 22.166 1.83398 22.5 2.25 22.5H20.25C20.666 22.5 21 22.166 21 21.75V8.25C21 7.83398 20.666 7.5 20.25 7.5H2.25ZM3 9H19.5V21H3V9ZM9 11.25V18.75L15 15L9 11.25Z" fill="#3C3C3C"/>
</svg>
