<svg width="24" height="24" viewBox="0 0 24 24" fill="none" xmlns="http://www.w3.org/2000/svg">
<path d="M3.75 3C2.51367 3 1.5 4.01367 1.5 5.25V18.75C1.5 19.9863 2.51367 21 3.75 21H20.25C21.4863 21 22.5 19.9863 22.5 18.75V5.25C22.5 4.01367 21.4863 3 20.25 3H3.75ZM3.75 4.5H20.25C20.6719 4.5 21 4.82812 21 5.25V16.1484L15.7441 10.5996L12.8145 13.8984L8.29688 9.13477L3 15.0996V5.25C3 4.82812 3.32812 4.5 3.75 4.5ZM16.5 6C15.6738 6 15 6.67383 15 7.5C15 8.32617 15.6738 9 16.5 9C17.3262 9 18 8.32617 18 7.5C18 6.67383 17.3262 6 16.5 6ZM8.33203 11.3496L16.0605 19.5H3.75C3.32812 19.5 3 19.1719 3 18.75V17.3613L8.33203 11.3496ZM15.7734 12.8203L21 18.3281V18.75C21 19.1719 20.6719 19.5 20.25 19.5H18.123L13.8516 14.9883L15.7734 12.8203Z" fill="#3C3C3C"/>
</svg>
